<svg xmlns="http://www.w3.org/2000/svg" viewBox="0 0 935.09 171.84"><defs><style>.cls-1{fill:#212529;}</style></defs><title>Asset 1</title><g id="Layer_2" data-name="Layer 2"><g id="Lockup"><path class="cls-1" d="M282.58,101.89h25.52v16.47c-6.42,4.61-14.66,6.92-23.88,6.92-20.42,0-34.91-15.48-34.91-36.56v-.33c0-19.6,14.66-35.9,33.1-35.9,13.34,0,21.24,4.28,30.14,11.69l16-19.27C316.51,34.7,304,29.1,283.24,29.1c-34.91,0-60.44,26.84-60.44,59.61V89c0,34.09,24.7,59.28,60.6,59.28A74.82,74.82,0,0,0,332.65,130V80H282.58Z"/><path class="cls-1" d="M381.36,57.1c-15,0-24.54,2.8-34.25,7.08l6.26,19.1c8.07-3,14.82-4.77,24.37-4.77,12.52,0,18.94,5.76,18.94,16.14v1.48A62.72,62.72,0,0,0,375.1,92.5c-20.91,0-35.57,8.89-35.57,28.16V121c0,17.45,13.67,27,30.3,27,12.19,0,20.58-4.45,26.68-11.2v9.55h24.21V95.14c0-11.86-3-21.57-9.55-28.16C404.91,60.72,395,57.1,381.36,57.1ZM397,115.23c0,9.06-7.91,15.48-19.6,15.48-8.07,0-13.67-4-13.67-10.7v-.33c0-7.91,6.59-12.19,17.29-12.19a38.8,38.8,0,0,1,16,3.29Z"/><path class="cls-1" d="M532.5,56.44c-12,0-21.24,4.94-29,14-4.61-8.89-13.34-14-24.87-14-12.68,0-20.25,6.75-26,14.16V58.09h-25v88.27h25V97.11c0-11.86,5.76-17.95,15.15-17.95s14.66,6.09,14.66,17.95v49.24h25V97.11c0-11.86,5.76-17.95,15.15-17.95s14.66,6.09,14.66,17.95v49.24h25V88.88C562.31,67.63,551.11,56.44,532.5,56.44Z"/><path class="cls-1" d="M612.84,56.44c-25.69,0-43.64,20.75-43.64,45.94v.33c0,27,19.6,45.62,46.11,45.62,16,0,27.83-6.26,36.06-16.47L637,119.18c-6.92,6.42-13,9.06-21.41,9.06-11.2,0-19.1-5.93-21.57-17.29h61.42c.16-2.3.33-4.61.33-6.59C655.82,79.33,642.32,56.44,612.84,56.44ZM593.74,95.3c2-11.36,8.73-18.77,19.1-18.77,10.54,0,17.13,7.58,18.61,18.77Z"/><path class="cls-1" d="M730.39,69.61c-5.93-7.08-14.16-13.17-27.5-13.17-20.91,0-40.18,16.14-40.18,45.61v.33c0,29.48,19.6,45.61,40.18,45.61,13,0,21.41-6.09,27.5-14.33v12.68h25V26.14h-25Zm.33,32.77c0,14.65-9.72,24.37-21.41,24.37s-21.57-9.72-21.57-24.37v-.33c0-14.82,9.88-24.37,21.57-24.37s21.41,9.72,21.41,24.37Z"/><path class="cls-1" d="M808.75,128.24c-11.2,0-19.1-5.93-21.57-17.29H848.6c.16-2.3.33-4.61.33-6.59,0-25-13.5-47.92-43-47.92-25.69,0-43.64,20.75-43.64,45.94v.33c0,27,19.6,45.62,46.11,45.62,16,0,27.83-6.26,36.06-16.47l-14.33-12.68C823.24,125.6,817.15,128.24,808.75,128.24Zm-2.8-51.71c10.54,0,17.13,7.58,18.61,18.77H786.85C788.82,83.94,795.57,76.53,805.95,76.53Z"/><polygon class="cls-1" points="903.97 101.23 933.78 58.09 907.59 58.09 890.96 83.94 874.49 58.09 847.65 58.09 877.46 101.56 846.5 146.35 872.68 146.35 890.47 118.85 908.25 146.35 935.09 146.35 903.97 101.23"/><path class="cls-1" d="M154.65,68.73,103.1,17.18,85.92,0,68.73,17.18,17.18,68.73h0L0,85.92,17.18,103.1l68.73,68.73,68.73-68.73,17.18-17.18ZM85.92,137.47,34.37,85.92,85.92,34.37,103.1,51.55,85.92,68.73h34.36l17.19,17.19Z"/><rect class="cls-1" x="73.77" y="73.77" width="24.3" height="24.3" transform="translate(-35.59 85.92) rotate(-45)"/></g></g></svg>