<?xml version="1.0" encoding="utf-8"?>
<!-- Generator: Adobe Illustrator 22.1.0, SVG Export Plug-In . SVG Version: 6.00 Build 0)  -->
<svg version="1.1" id="Layer_1" xmlns="http://www.w3.org/2000/svg" xmlns:xlink="http://www.w3.org/1999/xlink" x="0px" y="0px"
	 viewBox="0 0 841.9 595.3" style="enable-background:new 0 0 841.9 595.3;" xml:space="preserve">
<g>
	<path style="fill:#788195;" d="M436.3,314.4c-0.3,1.2-0.7,1.9-1.4,2.2c-0.7,0.3-1.5,0.2-2.4-0.4l-10.7-7.9l-5.2,5
		c-0.3,0.3-0.6,0.6-0.8,0.7c-0.3,0.2-0.8,0.3-1.4,0.3l0.8-10.9l19.8-18c0.3-0.2,0.4-0.4,0.3-0.6c-0.1-0.2-0.3-0.2-0.6-0.2
		c-0.3,0-0.6,0.2-1,0.4l-24.5,15.5l-10.6-3.3c-1.2-0.3-1.7-0.9-1.7-1.6s0.8-1.3,2.2-1.9l41.2-15.9c1-0.3,1.9-0.2,2.5,0.4
		s0.8,1.6,0.5,3.1L436.3,314.4z"/>
</g>
</svg>
