<svg xmlns="http://www.w3.org/2000/svg" viewBox="0 0 198.5609 36.1027"><title>hyperion-logo-FinalCol</title><path d="M378.3545,298.9541c0,3.3027,0,6.0215.1719,7.4668.103.9971.3095,1.7549,1.3418,1.8916a14.88,14.88,0,0,0,1.5483.1377c.2065,0,.2754.1035.2754.207,0,.1719-.1719.2754-.55.2754-1.8926,0-4.06-.1035-4.2324-.1035s-2.34.1035-3.3721.1035c-.3784,0-.5508-.0693-.5508-.2754,0-.1035.0689-.207.2754-.207a5.2738,5.2738,0,0,0,1.0322-.1377c.6885-.1367.86-.8945.9981-1.8916.1719-1.4453.1719-4.1641.1719-7.4668v-3.6133a.1979.1979,0,0,0-.2066-.206H360.6685a.1808.1808,0,0,0-.2066.206v3.6133c0,3.3027,0,6.0215.1719,7.4668.1035.9971.31,1.7549,1.3418,1.8916a14.8792,14.8792,0,0,0,1.5488.1377c.2061,0,.2749.1035.2749.207,0,.1719-.1719.2754-.55.2754-1.8926,0-4.0605-.1035-4.2324-.1035s-2.34.1035-3.3721.1035c-.3784,0-.55-.0693-.55-.2754,0-.1035.0689-.207.2749-.207a5.2708,5.2708,0,0,0,1.0323-.1377c.6884-.1367.86-.8945.998-1.8916.1719-1.4453.1719-4.1641.1719-7.4668v-6.0566c0-5.3672,0-6.3311-.0684-7.4317-.0688-1.17-.3442-1.7207-1.48-1.9619a6.4669,6.4669,0,0,0-1.17-.1025c-.1372,0-.2749-.0694-.2749-.2071,0-.206.1719-.2744.55-.2744,1.5484,0,3.7163.1026,3.8882.1026s2.34-.1026,3.3721-.1026c.3784,0,.5508.0684.5508.2744,0,.1377-.1377.2071-.2754.2071a5.1473,5.1473,0,0,0-.86.1025c-.9292.1729-1.2041.7578-1.2729,1.9619-.0689,1.1006-.0689,2.0645-.0689,7.4317v.7226a.1811.1811,0,0,0,.2066.207h14.5888a.1812.1812,0,0,0,.2066-.207v-.7226c0-5.3672,0-6.3311-.0689-7.4317-.0688-1.17-.3437-1.7207-1.4795-1.9619a6.475,6.475,0,0,0-1.17-.1025c-.1377,0-.2754-.0694-.2754-.2071,0-.206.1724-.2744.5508-.2744,1.5483,0,3.7163.1026,3.8882.1026s2.34-.1026,3.372-.1026c.3785,0,.55.0684.55.2744,0,.1377-.1377.2071-.2749.2071a5.1361,5.1361,0,0,0-.86.1025c-.9292.1729-1.2046.7578-1.2734,1.9619-.0684,1.1006-.0684,2.0645-.0684,7.4317Z" transform="translate(-314.7419 -276.9009)" fill="#333"/><path d="M390.5,301.3281a5.2133,5.2133,0,0,0-.6538-2.9931c-.2412-.4483-4.3355-6.9512-5.3677-8.4991a7.5918,7.5918,0,0,0-1.9961-2.1338,2.977,2.977,0,0,0-1.2729-.413.3034.3034,0,0,1-.31-.2754c0-.1377.103-.2061.3784-.2061.585,0,2.856.0684,2.9937.0684.2065,0,1.4448-.0684,2.6147-.0684.3443,0,.4131.0684.4131.2061,0,.1035-.2065.207-.4819.3105-.2408.1026-.3784.24-.3784.4815a2.4032,2.4032,0,0,0,.413,1.1357l5.5054,9.1182c.6192-1.2393,4.4043-7.501,4.9546-8.4649a3.1121,3.1121,0,0,0,.5161-1.5136c0-.4131-.1372-.6543-.4814-.7569-.2754-.0693-.4473-.207-.4473-.3447,0-.1035.1719-.1719.4814-.1719.7916,0,1.8584.0684,2.0992.0684.2065,0,2.374-.0684,2.959-.0684.2065,0,.3784.0684.3784.1719a.3511.3511,0,0,1-.3784.31,3.1,3.1,0,0,0-1.4107.3789,5.2443,5.2443,0,0,0-1.5142,1.4453c-.9975,1.17-5.2641,8.0517-5.8837,9.29a5.85,5.85,0,0,0-.3785,2.9248V303.84c0,.4815,0,1.7207.1031,2.9248.0688.86.2754,1.4112,1.17,1.5479a11.4861,11.4861,0,0,0,1.3765.1377.2338.2338,0,0,1,.2407.2412c0,.1377-.1719.2412-.4815.2412-1.686,0-3.6474-.1035-3.8193-.1035-.1377,0-2.0645.1035-2.959.1035-.3442,0-.4819-.0693-.4819-.2412a.2337.2337,0,0,1,.2407-.2412,3.9944,3.9944,0,0,0,.8945-.1377c.62-.1367.8262-.6875.8951-1.5479.0688-1.2041.0688-2.4433.0688-2.9248Z" transform="translate(-314.7419 -276.9009)" fill="#333"/><path d="M404.1255,295.2725c0-4.542,0-5.3682-.0689-6.2969-.0688-.9981-.2412-1.4795-1.2387-1.6172a9.7932,9.7932,0,0,0-1.0323-.0693.2919.2919,0,0,1-.2407-.24c0-.1728.1372-.2412.4815-.2412,1.3764,0,3.269.0684,3.51.0684.6538,0,2.9248-.0684,4.3008-.0684,3.8882,0,5.2647,1.2041,5.7808,1.6514a4.9291,4.9291,0,0,1,1.5141,3.51c0,4.1982-3.1655,6.9853-7.811,6.9853a7.23,7.23,0,0,1-.86-.0342.3306.3306,0,0,1-.3095-.2754c0-.2412.1718-.31.791-.31,3.269,0,5.6089-2.0655,5.6089-4.7149a5.9435,5.9435,0,0,0-1.7207-4.4385,5.1491,5.1491,0,0,0-4.0948-1.41,10.1964,10.1964,0,0,0-1.686.206c-.1719.0342-.2407.2413-.2407.5508v11.9053c0,2.8213,0,5.1269.1377,6.331.103.86.2754,1.4112,1.2046,1.5479a10.98,10.98,0,0,0,1.3418.1377.2338.2338,0,0,1,.2407.2412c0,.1377-.1377.2412-.4819.2412-1.6514,0-3.647-.1035-3.7847-.1035-.103,0-2.0645.1035-2.9937.1035-.3095,0-.4814-.0693-.4814-.2412a.2337.2337,0,0,1,.2407-.2412,4.3031,4.3031,0,0,0,.9292-.1377c.585-.1367.6533-.6875.791-1.5479a59.59,59.59,0,0,0,.1724-6.331Z" transform="translate(-314.7419 -276.9009)" fill="#333"/><path d="M421.0542,295.2725c0-4.542,0-5.3682-.0688-6.2969-.0689-.9981-.2413-1.4795-1.2388-1.6172a9.7912,9.7912,0,0,0-1.0322-.0693.2919.2919,0,0,1-.2408-.24c0-.1728.1372-.2412.4815-.2412,1.3764,0,3.3379.0684,3.51.0684.2071,0,6.5381.0351,7.2256,0,.585-.0342,1.1358-.1367,1.377-.1719a1.9535,1.9535,0,0,1,.4131-.1377c.1025,0,.1377.1377.1377.2754,0,.207-.1729.5508-.2412,1.377-.0342.2744-.1036,1.582-.1719,1.9267-.0352.1377-.1377.31-.2754.31-.1719,0-.2412-.1377-.2412-.3789a3.2089,3.2089,0,0,0-.1719-1.0323c-.2061-.4814-.5156-.6875-2.168-.8945-.5156-.0683-4.0254-.1035-4.37-.1035-.1367,0-.1719.1035-.1719.31v7.9483c0,.206,0,.31.1719.31.3789,0,4.37,0,5.0586-.0694.7227-.0683,1.17-.1025,1.4795-.4121.2061-.207.3438-.3789.4473-.3789s.1718.0684.1718.2412a15.8839,15.8839,0,0,0-.24,1.6172c-.0693.585-.1377,1.6856-.1377,1.8916,0,.2412-.0693.5508-.2754.5508-.1377,0-.207-.1026-.207-.2754a2.59,2.59,0,0,0-.1377-.9629c-.1025-.4131-.3779-.7568-1.5479-.8945-.8261-.1035-4.0605-.1377-4.5761-.1377a.1813.1813,0,0,0-.2071.206v2.4434c0,.998-.0341,4.4043,0,4.9893.0694,1.9609.62,2.34,3.6133,2.34a10.0892,10.0892,0,0,0,3.0283-.31,2.22,2.22,0,0,0,1.376-2.03c.0684-.3448.1377-.4473.31-.4473s.206.24.206.4473a24.2491,24.2491,0,0,1-.4121,2.8212c-.207.7569-.5166.7569-1.6865.7569-2.27,0-4.0254-.0684-5.2646-.1035-1.2725-.0684-2.0645-.0684-2.5118-.0684-.0683,0-.6538,0-1.3076.0342-.5849.0342-1.2729.0693-1.7549.0693-.31,0-.4814-.0693-.4814-.2412a.2337.2337,0,0,1,.2407-.2412,8.4535,8.4535,0,0,0,.9292-.1377c.585-.1025.6533-.6875.791-1.5479a59.59,59.59,0,0,0,.1724-6.331Z" transform="translate(-314.7419 -276.9009)" fill="#333"/><path d="M437.2607,295.2725c0-4.542,0-5.3682-.0693-6.2969-.0684-.9981-.2412-1.4795-1.2383-1.6172a9.7985,9.7985,0,0,0-1.0322-.0693.2925.2925,0,0,1-.2412-.24c0-.1728.1377-.2412.4814-.2412,1.377,0,3.4063.0684,3.5791.0684.31,0,2.8555-.0684,3.7842-.0684a9.9125,9.9125,0,0,1,5.6436,1.2735,5.1287,5.1287,0,0,1,2.0986,3.9912c0,2.1679-.8945,4.2666-3.7158,6.6748,2.4775,3.0967,4.5762,5.7461,6.331,7.57,1.6172,1.6514,2.6153,1.9267,3.3721,2.03a5.6028,5.6028,0,0,0,1.0664.1025.2669.2669,0,0,1,.2754.2412c0,.1719-.1719.2412-.7227.2412h-1.8925a6.102,6.102,0,0,1-3.2344-.5849c-1.3076-.6885-2.4082-2.1-4.1289-4.3018-1.2734-1.582-2.6152-3.4746-3.2686-4.2666a.4637.4637,0,0,0-.4131-.1719l-3.8535-.0683c-.1377,0-.207.0683-.207.24v.6885c0,2.8213,0,5.0927.1377,6.2968.1035.86.2754,1.4112,1.2051,1.5479a10.9707,10.9707,0,0,0,1.3418.1377.2147.2147,0,0,1,.24.2412c0,.1377-.1377.2412-.4814.2412-1.6514,0-3.5782-.1035-3.7159-.1035-.0351,0-2.0644.1035-2.9941.1035-.31,0-.4814-.0693-.4814-.2412a.2341.2341,0,0,1,.2412-.2412,4.2987,4.2987,0,0,0,.9287-.1377c.5849-.1367.6533-.6875.791-1.5479a59.4523,59.4523,0,0,0,.1728-6.331Zm2.6143,2.4775a.4316.4316,0,0,0,.207.3779,10.2489,10.2489,0,0,0,3.3379.4473,3.9344,3.9344,0,0,0,2.2705-.5156c1.0323-.6885,1.8233-2.2373,1.8233-4.4737,0-3.6474-1.9951-5.7461-5.2295-5.7461a13.2661,13.2661,0,0,0-2.168.1719.375.375,0,0,0-.2412.3447Z" transform="translate(-314.7419 -276.9009)" fill="#333"/><path d="M460.3828,300.4336c0,2.8213,0,5.1269.1377,6.331.1025.86.2061,1.4112,1.1006,1.5479a12.2076,12.2076,0,0,0,1.3769.1377.2333.2333,0,0,1,.24.2412c0,.1377-.1377.2412-.4815.2412-1.6855,0-3.6474-.1035-3.7851-.1035-.1719,0-2.0645.1035-2.9932.1035-.31,0-.4814-.0693-.4814-.2412a.2333.2333,0,0,1,.24-.2412,4.3076,4.3076,0,0,0,.93-.1377c.584-.1367.6875-.6875.791-1.5479.1377-1.2041.1719-3.51.1719-6.331v-5.1611c0-4.542,0-5.3682-.0684-6.2969-.0693-.9981-.3105-1.4453-.9638-1.583a5.4572,5.4572,0,0,0-.9288-.1035.2588.2588,0,0,1-.2412-.24c0-.1728.1377-.2412.4815-.2412.998,0,2.8906.0684,3.0625.0684.1377,0,2.1-.0684,3.0283-.0684.3438,0,.4814.0684.4814.2412a.2924.2924,0,0,1-.2412.24,3.3572,3.3572,0,0,0-.7568.0693c-.8252.1719-.9971.585-1.0664,1.6172-.0342.9287-.0342,1.7549-.0342,6.2969Z" transform="translate(-314.7419 -276.9009)" fill="#333"/><path d="M476.3477,286.3945c6.8134,0,11.9746,4.1641,11.9746,10.9766a11.7193,11.7193,0,0,1-12.1465,11.9394c-8.292,0-11.836-6.2275-11.836-11.4921A11.5838,11.5838,0,0,1,476.3477,286.3945Zm.6884,21.7119c2.7188,0,8.19-1.4453,8.19-9.9091,0-7.02-4.2666-10.7012-9.05-10.7012-5.0576,0-8.7051,3.165-8.7051,9.5312C467.4707,303.84,471.5654,308.1064,477.0361,308.1064Z" transform="translate(-314.7419 -276.9009)" fill="#333"/><path d="M493.1738,304.9414c.0694,2.4082.3448,3.1309,1.17,3.3369a7.1948,7.1948,0,0,0,1.5146.1719.2354.2354,0,0,1,.24.2412c0,.1719-.206.2412-.5507.2412-1.72,0-2.9249-.1035-3.1993-.1035s-1.5488.1035-2.9248.1035c-.31,0-.4824-.0351-.4824-.2412a.2357.2357,0,0,1,.2412-.2412,4.7561,4.7561,0,0,0,1.2383-.1719c.7578-.206.86-.998.86-3.6474V287.874c0-1.17.1729-1.48.4131-1.48.3448,0,.86.585,1.17.8946.4814.4824,4.8857,5.1611,9.5654,9.9785,2.9941,3.0967,6.2285,6.5722,7.1572,7.5361l-.31-14.6582c-.0341-1.8926-.206-2.5469-1.1357-2.7187a9.7743,9.7743,0,0,0-1.4795-.1377c-.206,0-.2412-.1719-.2412-.2754,0-.1719.2412-.2061.585-.2061,1.3769,0,2.8222.0684,3.166.0684s1.3418-.0684,2.581-.0684c.31,0,.55.0342.55.2061a.3415.3415,0,0,1-.3437.2754,3.4027,3.4027,0,0,0-.7227.0693c-.998.2061-1.0664.791-1.0664,2.5459l-.0693,17.1357c0,1.9268-.0342,2.0987-.24,2.0987-.31,0-.62-.2412-2.3057-1.7891-.31-.2754-4.68-4.5762-7.88-7.9141-3.51-3.6816-6.916-7.26-7.8447-8.2919Z" transform="translate(-314.7419 -276.9009)" fill="#333"/><path d="M346.0217,294.9306l-.0016-8.9178.003-.0111a.1716.1716,0,0,0-.0859-.1486l-7.7328-4.4645-7.7332-4.4646a.1718.1718,0,0,0-.1721,0l-7.7331,4.4646-7.73,4.4628-.0054.0015a.1711.1711,0,0,0-.0857.1486l-.0016,8.9291-.0014,8.9294a.1666.1666,0,0,0,.0084.0315l-.0031.0113a.1716.1716,0,0,0,.0859.1486l7.7329,4.4646,7.7331,4.4645a.1718.1718,0,0,0,.1721,0l7.7332-4.4645,7.7328-4.4646a.1716.1716,0,0,0,.0859-.1486.146.146,0,0,0-.0058-.0213.1486.1486,0,0,0,.0058-.0215Zm-25.0681,5.4825.0017-10.9227,9.43-5.4442,9.19,5.3059-1.7094.9868-7.73,4.463-.0054.0014a.1713.1713,0,0,0-.0857.1486l.0481.0486-.0452-.0324-.0015,8.9291,0,1.7653Z" transform="translate(-314.7419 -276.9009)" fill="#133775"/></svg>