<?xml version="1.0" encoding="utf-8"?>
<!-- Generator: Adobe Illustrator 22.1.0, SVG Export Plug-In . SVG Version: 6.00 Build 0)  -->
<svg version="1.1" id="Layer_1" xmlns="http://www.w3.org/2000/svg" xmlns:xlink="http://www.w3.org/1999/xlink" x="0px" y="0px"
   viewBox="352 234 132 130" style="enable-background:new 0 0 841.9 595.3;" xml:space="preserve">
<polygon style="fill:#FFFFFF;" points="420.7,293.4 422.7,293.4 427.5,301.4 427.5,293.4 429.3,293.4 429.3,304.6 427.4,304.6 
  422.5,296.4 422.5,304.6 420.7,304.6 "/>
<path style="fill:#FFFFFF;" d="M433,302.4v-6.7c0-1.5,0.7-2.2,2.2-2.2h3.9c1.5,0,2.2,0.7,2.2,2.2v6.7c0,1.5-0.7,2.2-2.2,2.2h-3.9
  C433.7,304.6,433,303.9,433,302.4 M438.8,302.9c0.4,0,0.6-0.2,0.6-0.6v-6.5c0-0.4-0.2-0.6-0.6-0.6h-3.3c-0.4,0-0.6,0.2-0.6,0.6v6.5
  c0,0.4,0.2,0.6,0.6,0.6H438.8z"/>
<rect x="445" y="293.4" style="fill:#FFFFFF;" width="1.9" height="11.2"/>
<path style="fill:#FFFFFF;" d="M456.2,301.9h-4.1l-0.8,2.7h-2l3.6-11.2h2.7l3.6,11.2h-2.1L456.2,301.9z M455.7,300.1l-1.5-5l-1.5,5
  H455.7z"/>
<path style="fill:#FFFFFF;" d="M412.2,294.1c0-0.8-0.6-1.4-1.4-1.5v-1.3c0.8-0.1,1.4-0.7,1.4-1.5c0-0.8-0.7-1.5-1.5-1.5
  c-0.8,0-1.5,0.7-1.5,1.5c0,0.8,0.6,1.4,1.4,1.5v1.3c-0.7,0.1-1.3,0.7-1.4,1.4h-1.3c-0.1-0.8-0.7-1.4-1.5-1.4c-0.8,0-1.5,0.7-1.5,1.5
  c0,0.8,0.6,1.4,1.4,1.5v1.3c-0.7,0.1-1.3,0.7-1.4,1.4h-1.3c-0.1-0.8-0.7-1.4-1.5-1.4c-0.8,0-1.5,0.6-1.5,1.4h-1.3
  c-0.1-0.7-0.6-1.3-1.4-1.4v-1.3c0.8-0.1,1.4-0.7,1.4-1.5c0-0.8-0.7-1.5-1.5-1.5c-0.8,0-1.5,0.6-1.5,1.4h-1.3
  c-0.1-0.7-0.6-1.3-1.4-1.4v-1.3c0.8-0.1,1.4-0.7,1.4-1.5c0-0.8-0.7-1.5-1.5-1.5c-0.8,0-1.5,0.7-1.5,1.5c0,0.8,0.6,1.4,1.4,1.5v1.3
  c-0.7,0.1-1.3,0.7-1.4,1.4h-1.3c-0.1-0.8-0.7-1.4-1.5-1.4c-0.8,0-1.5,0.7-1.5,1.5c0,0.8,0.6,1.4,1.4,1.5v1.3
  c-0.7,0.1-1.3,0.7-1.4,1.4h-1.3c-0.1-0.8-0.7-1.4-1.5-1.4c-0.8,0-1.5,0.7-1.5,1.5c0,0.8,0.6,1.4,1.4,1.5v1.3
  c-0.8,0.1-1.4,0.7-1.4,1.5c0,0.8,0.6,1.4,1.4,1.5v1.3c-0.8,0.1-1.4,0.7-1.4,1.5c0,0.8,0.7,1.5,1.5,1.5c0.8,0,1.5-0.7,1.5-1.5
  c0-0.8-0.6-1.4-1.4-1.5v-1.3c0.7-0.1,1.3-0.6,1.4-1.3h1.3c0.1,0.8,0.7,1.4,1.5,1.4c0.8,0,1.5-0.7,1.5-1.5c0-0.8-0.6-1.4-1.4-1.5V300
  c0.7-0.1,1.3-0.6,1.4-1.3h1.3c0.1,0.8,0.7,1.4,1.5,1.4c0.8,0,1.4-0.6,1.5-1.4h1.3c0.1,0.7,0.6,1.3,1.4,1.3v1.3
  c-0.8,0.1-1.4,0.7-1.4,1.5c0,0.8,0.7,1.5,1.5,1.5c0.8,0,1.4-0.6,1.5-1.4h1.3c0.1,0.7,0.7,1.3,1.4,1.3v1.3c-0.8,0.1-1.4,0.7-1.4,1.5
  c0,0.8,0.7,1.5,1.5,1.5c0.8,0,1.5-0.7,1.5-1.5c0-0.8-0.6-1.4-1.4-1.5v-1.3c0.7-0.1,1.3-0.6,1.4-1.3h1.3c0.1,0.8,0.7,1.4,1.5,1.4
  c0.8,0,1.5-0.7,1.5-1.5c0-0.8-0.6-1.4-1.4-1.5V300c0.7-0.1,1.3-0.6,1.4-1.3h1.3c0.1,0.8,0.7,1.4,1.5,1.4c0.8,0,1.5-0.7,1.5-1.5
  c0-0.8-0.6-1.4-1.4-1.5v-1.3C411.6,295.6,412.2,294.9,412.2,294.1 M409.1,298.3h-1.3c-0.1-0.7-0.6-1.3-1.4-1.4v-1.3
  c0.7-0.1,1.3-0.6,1.4-1.4h1.3c0.1,0.7,0.7,1.3,1.4,1.4v1.3C409.8,297,409.2,297.6,409.1,298.3 M404.8,302.6h-1.3
  c-0.1-0.7-0.6-1.3-1.4-1.4V300c0.7-0.1,1.3-0.6,1.4-1.3h1.3c0.1,0.7,0.6,1.3,1.4,1.3v1.3C405.4,301.3,404.8,301.9,404.8,302.6
   M397.8,301.2V300c0.7-0.1,1.3-0.6,1.4-1.3h1.3c0.1,0.7,0.6,1.3,1.4,1.3v1.3c-0.7,0.1-1.3,0.7-1.4,1.4h-1.3
  C399.1,301.9,398.5,301.3,397.8,301.2 M389.1,296.9v-1.3c0.7-0.1,1.3-0.6,1.4-1.4h1.3c0.1,0.7,0.6,1.3,1.4,1.4v1.3
  c-0.7,0.1-1.3,0.7-1.4,1.4h-1.3C390.4,297.6,389.9,297,389.1,296.9 M393.5,296.9v-1.3c0.7-0.1,1.3-0.6,1.4-1.4h1.3
  c0.1,0.7,0.6,1.3,1.4,1.4v1.3c-0.7,0.1-1.3,0.7-1.4,1.4h-1.3C394.8,297.6,394.2,297,393.5,296.9 M387.5,302.6h-1.3
  c-0.1-0.7-0.6-1.3-1.4-1.4V300c0.7-0.1,1.3-0.6,1.4-1.3h1.3c0.1,0.7,0.6,1.3,1.4,1.3v1.3C388.1,301.3,387.5,301.9,387.5,302.6"/>
</svg>
